<?xml version="1.0" encoding="UTF-8" standalone="no"?>
<svg
   xmlns:dc="http://purl.org/dc/elements/1.1/"
   xmlns:cc="http://creativecommons.org/ns#"
   xmlns:rdf="http://www.w3.org/1999/02/22-rdf-syntax-ns#"
   xmlns:svg="http://www.w3.org/2000/svg"
   xmlns="http://www.w3.org/2000/svg"
   xmlns:sodipodi="http://sodipodi.sourceforge.net/DTD/sodipodi-0.dtd"
   xmlns:inkscape="http://www.inkscape.org/namespaces/inkscape"
   width="992.472"
   height="955.743"
   id="svg2"
   version="1.1"
   inkscape:version="0.91 r13725"
   sodipodi:docname="Quicks.svg">
  <metadata
     id="metadata40">
    <rdf:RDF>
      <cc:Work
         rdf:about="">
        <dc:format>image/svg+xml</dc:format>
        <dc:type
           rdf:resource="http://purl.org/dc/dcmitype/StillImage" />
      </cc:Work>
    </rdf:RDF>
  </metadata>
  <defs
     id="defs38" />
  <sodipodi:namedview
     pagecolor="#ffffff"
     bordercolor="#666666"
     borderopacity="1"
     objecttolerance="10"
     gridtolerance="10"
     guidetolerance="10"
     inkscape:pageopacity="0"
     inkscape:pageshadow="2"
     inkscape:window-width="640"
     inkscape:window-height="480"
     id="namedview36"
     showgrid="false"
     inkscape:zoom="0.24692831"
     inkscape:cx="496.23599"
     inkscape:cy="477.87149"
     inkscape:window-x="0"
     inkscape:window-y="0"
     inkscape:window-maximized="0"
     inkscape:current-layer="svg2" />
  <path
     d="M655.052 740.057c86.59 72.882 218.54 61.664 337.42 41.88-127.694-17.082-164.835-57.425-152.38-162.993z"
     fill="#7fff2a"
     id="path6" />
  <path
     d="M680.77 723.162l-25.823 16.903c86.588 72.882 218.54 61.663 337.418 41.878-2.926-.39-5.622-.798-8.453-1.214-3.624.545-7.19 1.088-10.807 1.58-7.408 1.003-14.802 1.888-22.174 2.643-7.37.756-14.72 1.382-22.044 1.87-7.322.49-14.616.84-21.875 1.046-7.257.204-14.48.263-21.66.167-7.182-.096-14.32-.347-21.41-.762-7.09-.414-14.13-.993-21.114-1.744-6.985-.75-13.914-1.672-20.78-2.776-6.865-1.104-13.666-2.39-20.398-3.865-6.732-1.476-13.395-3.14-19.98-5.003-6.586-1.863-13.094-3.924-19.518-6.192-6.424-2.268-12.764-4.742-19.014-7.433-6.25-2.69-12.407-5.598-18.468-8.73-6.06-3.13-12.025-6.485-17.883-10.073-5.86-3.59-11.612-7.41-17.254-11.474-2.98-2.146-5.842-4.542-8.76-6.824z"
     fill="#55d400"
     id="path8" />
  <path
     d="M557.796 824.862c128.14 100.806 238.988 136.28 414.915 108.915-58.156-29.106-120.844-34.83-160.574-83.225-31.69-38.6-45-115.67-57.255-170.91l-74.088 85.827z"
     fill="#4a0"
     id="path10" />
  <path
     d="M337.42 737.792C250.833 810.674 118.88 799.456 0 779.672c127.695-17.082 164.836-57.425 152.38-162.993z"
     fill="#7fff2a"
     id="path12" />
  <path
     d="M427.49 817.576C299.35 918.382 188.504 953.856 12.577 926.49c58.157-29.105 120.845-34.828 160.575-83.224 31.69-38.6 45-115.672 57.256-170.91l74.09 85.827zM152.38 616.68C164.832 722.25 127.693 762.593 0 779.675c.088.015.178.026.266.04 17.448-2.315 33.613-4.037 48.388-5.677 7.547-.838 14.754-1.66 21.63-2.545 6.875-.884 13.42-1.83 19.642-2.91 6.222-1.08 12.123-2.3 17.71-3.727 2.794-.714 5.51-1.48 8.147-2.308 2.64-.83 5.2-1.723 7.686-2.686 2.484-.962 4.893-1.997 7.227-3.112 2.334-1.116 4.594-2.313 6.78-3.6 2.185-1.287 4.297-2.665 6.336-4.142 2.038-1.478 4.005-3.056 5.9-4.743 2.975-2.648 5.95-5.616 8.867-8.873 2.917-3.257 5.777-6.8 8.522-10.605 2.744-3.804 5.375-7.867 7.834-12.156 2.458-4.29 4.744-8.808 6.802-13.523s3.886-9.626 5.43-14.705c.772-2.54 1.474-5.12 2.096-7.738.62-2.62 1.163-5.276 1.62-7.967.458-2.69.83-5.415 1.108-8.17.28-2.755.467-5.542.553-8.354.086-2.81.07-5.65-.05-8.51-.012-.253-.05-.51-.06-.765l-40.056-26.217z"
     fill="#55d400"
     id="path14" />
  <ellipse
     cx="498.508"
     cy="437.641"
     rx="422.082"
     ry="437.641"
     fill="#4a0"
     id="ellipse16" />
  <circle
     cx="503.694"
     cy="437.268"
     r="300.814"
     fill="#fff"
     id="circle18" />
  <circle
     cx="503.694"
     cy="432.082"
     r="186.712"
     fill="#0f0"
     id="circle20" />
  <circle
     cx="503.694"
     cy="425.644"
     r="83.698"
     id="circle22" />
  <circle
     cx="520.527"
     cy="402.373"
     r="25.753"
     fill="#fff"
     id="circle24" />
  <circle
     cx="540.304"
     cy="426.275"
     r="12.877"
     fill="#fff"
     id="circle26" />
  <path
     d="M227.326 673.733c-12.256 55.24-25.565 132.31-57.254 170.912-39.04 47.557-100.234 54.02-157.53 81.845 4.778-1.22 9.688-2.386 14.723-3.51 10.438-2.328 21.356-4.49 32.442-6.64 11.086-2.15 22.34-4.294 33.45-6.588 11.11-2.293 22.075-4.736 32.585-7.49 5.255-1.377 10.395-2.833 15.383-4.385 4.988-1.552 9.824-3.202 14.467-4.97 4.643-1.766 9.094-3.65 13.314-5.67 4.22-2.022 8.21-4.182 11.928-6.5 3.72-2.315 7.168-4.788 10.308-7.438 1.57-1.326 3.062-2.696 4.473-4.112 1.41-1.417 2.74-2.88 3.982-4.39 3.962-4.826 7.96-10.132 11.948-15.83 3.988-5.696 7.964-11.783 11.885-18.177 3.92-6.393 7.782-13.093 11.54-20.01 3.76-6.914 7.413-14.046 10.915-21.31 3.5-7.262 6.85-14.657 10.002-22.093 3.15-7.436 6.102-14.914 8.808-22.348 2.48-6.81 4.688-13.56 6.717-20.227l-44.086-51.07z"
     fill="#4a0"
     id="path28" />
  <path
     d="M967.283 931.076c-2.237.174-4.49.395-6.713.53-4.76.287-9.49.486-14.188.597-4.698.112-9.365.137-14.002.078-9.273-.117-18.426-.57-27.465-1.335-9.038-.764-17.962-1.84-26.78-3.203-8.815-1.363-17.525-3.013-26.132-4.928-8.606-1.914-17.11-4.093-25.52-6.51-8.41-2.42-16.724-5.078-24.95-7.953-8.223-2.874-16.358-5.964-24.41-9.25-8.053-3.283-16.022-6.76-23.915-10.407-7.892-3.646-15.708-7.46-23.453-11.422-7.745-3.96-15.42-8.064-23.03-12.292-7.612-4.227-15.157-8.576-22.646-13.023-7.49-4.447-14.92-8.992-22.297-13.61-7.38-4.62-14.704-9.314-21.985-14.058-12.568-8.19-22.46-21.295-37.277-22.86-9.09-.962-22.197 3.522-33.458 5.538-13.857 2.48-27.846 4.138-41.883 5.146-9.938.714-19.897 1.07-29.858 1.07-14.072 0-28.136-.71-42.137-2.133-14.003-1.422-27.926-3.552-41.72-6.38-13.79-2.83-27.434-6.358-40.878-10.568-13.444-4.21-26.67-9.1-39.633-14.647-12.96-5.547-25.64-11.747-37.99-18.576-12.35-6.83-24.354-14.28-35.97-22.324-11.612-8.044-22.822-16.67-33.585-25.846-10.764-9.178-21.067-18.894-30.872-29.113-9.804-10.22-19.098-20.928-27.845-32.086-8.748-11.16-16.938-22.754-24.54-34.74-7.604-11.988-14.61-24.352-20.994-37.048-6.384-12.695-12.136-25.705-17.235-38.982-5.1-13.277-9.54-26.805-13.305-40.53-3.764-13.727-6.848-27.635-9.24-41.673-1.212-8.138-2.192-16.31-2.937-24.504-.055 1.405-.103 2.81-.145 4.214 0 116.07 44.47 227.385 123.625 309.46 79.156 82.072 186.514 128.18 298.457 128.18 36.464-.076 72.765-5.053 107.996-14.804 108.99 73.26 212.883 97.15 366.207 73.3-2.415-1.208-4.87-2.17-7.3-3.304z"
     fill="#338000"
     id="path30" />
  <path
     d="M317.378 423.746a186.712 186.712 0 0 0-.414 8.285 186.712 186.712 0 0 0 186.71 186.712 186.712 186.712 0 0 0 186.71-186.71 186.712 186.712 0 0 0-.413-11.716 186.712 186.712 0 0 1-.516 10.356 186.712 186.712 0 0 1-2.79 18.453 186.712 186.712 0 0 1-4.616 18.084 186.712 186.712 0 0 1-6.4 17.53 186.712 186.712 0 0 1-8.118 16.805 186.712 186.712 0 0 1-9.756 15.912 186.712 186.712 0 0 1-11.295 14.857 186.712 186.712 0 0 1-12.72 13.657 186.712 186.712 0 0 1-14.023 12.317 186.712 186.712 0 0 1-15.182 10.857 186.712 186.712 0 0 1-16.19 9.285 186.712 186.712 0 0 1-17.034 7.624 186.712 186.712 0 0 1-17.71 5.885 186.712 186.712 0 0 1-18.21 4.087 186.712 186.712 0 0 1-18.528 2.248 186.712 186.712 0 0 1-13.207.467 186.712 186.712 0 0 1-18.64-.932 186.712 186.712 0 0 1-18.454-2.79 186.712 186.712 0 0 1-18.083-4.616 186.712 186.712 0 0 1-17.53-6.4 186.712 186.712 0 0 1-16.806-8.117 186.712 186.712 0 0 1-15.91-9.756 186.712 186.712 0 0 1-14.86-11.294 186.712 186.712 0 0 1-13.655-12.72 186.712 186.712 0 0 1-12.316-14.022 186.712 186.712 0 0 1-10.86-15.182 186.712 186.712 0 0 1-9.284-16.19 186.712 186.712 0 0 1-7.625-17.035 186.712 186.712 0 0 1-5.884-17.71 186.712 186.712 0 0 1-4.088-18.212 186.712 186.712 0 0 1-2.248-18.527 186.712 186.712 0 0 1-.052-1.492z"
     fill="#00d400"
     id="path32" />
  <path
     d="M502.563 384.108c-5.385 4.873-8.463 11.794-8.474 19.057 0 14.223 11.528 25.753 25.75 25.754 2.38 0 4.714-.337 6.948-.966.458 6.696 6.02 11.99 12.832 11.988 4.924-.01 9.413-2.82 11.565-7.25-.12.09-.242.176-.366.26-.362.232-.735.446-1.118.64-.382.195-.774.37-1.174.526-.4.156-.807.29-1.22.406-.414.115-.833.21-1.256.282-.424.073-.85.125-1.28.156-.302.02-.606.03-.91.03-.43 0-.858-.022-1.285-.063-.427-.044-.852-.107-1.273-.192-.42-.085-.837-.192-1.246-.32-.41-.126-.814-.273-1.21-.44-.395-.167-.782-.355-1.16-.56-.376-.206-.743-.43-1.097-.672-.353-.243-.695-.503-1.023-.78-.328-.276-.642-.57-.94-.877-.3-.31-.584-.633-.85-.97-.268-.336-.518-.685-.75-1.046-.233-.36-.446-.733-.64-1.116-.196-.383-.37-.775-.527-1.175-.155-.4-.29-.808-.406-1.22-.115-.415-.208-.834-.28-1.257-.094-.443-.143-.898-.2-1.275-.828.23-1.666.42-2.512.565-.847.146-1.7.25-2.557.31-.606.042-1.213.063-1.82.063-.86 0-1.718-.042-2.572-.127-.855-.085-1.704-.213-2.545-.384-.842-.17-1.674-.384-2.494-.64-.82-.252-1.628-.546-2.418-.88-.79-.334-1.565-.708-2.32-1.12-.752-.412-1.485-.86-2.194-1.346-.708-.485-1.392-1.004-2.05-1.557-.655-.553-1.284-1.14-1.882-1.756-.598-.616-1.165-1.26-1.7-1.933-.533-.673-1.033-1.372-1.497-2.094-.464-.722-.892-1.468-1.28-2.233-.39-.765-.74-1.55-1.052-2.35-.31-.8-.582-1.615-.81-2.443-.23-.827-.418-1.665-.564-2.51-.146-.848-.25-1.7-.31-2.558-.044-.606-.065-1.213-.065-1.82 0-.86.044-1.718.13-2.572.086-.855.214-1.704.385-2.545.17-.843.383-1.675.637-2.496.254-.82.548-1.627.883-2.417.334-.79.707-1.565 1.12-2.32.335-.6.695-1.187 1.08-1.76z"
     fill="#b3b3b3"
     id="path34" />
</svg>
